<svg width="168" viewBox="0 0 100 56"><g><svg data-color="1" version="1.1" xmlns="http://www.w3.org/2000/svg" xmlns:xlink="http://www.w3.org/1999/xlink" x="0px" y="0px" viewBox="0 0 100 56" enable-background="new 0 0 100 56" xml:space="preserve" fill="#1e1e1e"><path d="M57,51v1c0,0.553-0.447,1-1,1H44c-0.553,0-1-0.447-1-1v-1H0v2c0,0,0,3,3,3h94c3,0,3-3,3-3v-2H57z"></path><path d="M85,0H15c-1.658,0-3,1.343-3,3v1v41c0,1.657,1.342,3,3,3h1h68h1c1.656,0,3-1.343,3-3V4V3C88,1.343,86.657,0,85,0z M84,44H16
	V4h68V44z"></path></svg></g></svg>
	<svg xmlns="http://www.w3.org/2000/svg" xmlns:xlink="http://www.w3.org/1999/xlink" width="65.37999725341797" viewBox="0.2900000214576721 18.56999969482422 65.37999725341797 35.099998474121094" overflow="visible" style="overflow: visible;"><path stroke="none" fill="#1e1e1e" d="M31.49 45.79L31.52 45.88L31.52 45.88Q31.52 46.11 31.36 46.20L31.36 46.20L31.36 46.20Q31.20 46.29 31.29 46.61L31.29 46.61L31.29 46.61Q31.05 46.64 30.88 46.85L30.88 46.85L30.88 46.85Q30.70 47.05 30.47 47.05L30.47 47.05L30.47 47.05Q30.32 47.05 30.23 46.90L30.23 46.90L30.23 46.90Q30.18 47.11 30.01 47.20L30.01 47.20L30.01 47.20Q29.85 47.29 29.68 47.34L29.68 47.34L29.68 47.34Q29.50 47.40 29.33 47.49L29.33 47.49L29.33 47.49Q29.15 47.58 29.09 47.75L29.09 47.75L28.95 47.75L28.95 47.75Q28.59 47.75 28.40 48.05L28.40 48.05L28.40 48.05Q28.21 48.34 27.95 48.34L27.95 48.34L27.95 48.34Q27.86 48.34 27.83 48.31L27.83 48.31L27.83 48.31Q27.69 48.34 27.71 48.50L27.71 48.50L27.71 48.50Q27.74 48.66 27.63 48.72L27.63 48.72L27.48 48.72L27.48 48.72Q26.72 48.72 25.93 49.04L25.93 49.04L25.93 49.04Q25.14 49.37 24.33 49.78L24.33 49.78L24.33 49.78Q23.53 50.19 22.69 50.55L22.69 50.55L22.69 50.55Q21.86 50.92 21.01 51.04L21.01 51.04L21.01 51.04Q20.83 51.21 20.58 51.31L20.58 51.31L20.58 51.31Q20.33 51.42 20.04 51.47L20.04 51.47L20.04 51.47Q19.75 51.53 19.47 51.61L19.47 51.61L19.47 51.61Q19.19 51.68 18.98 51.86L18.98 51.86L18.98 51.86Q18.25 51.91 17.52 52.12L17.52 52.12L17.52 52.12Q16.79 52.32 16.07 52.51L16.07 52.51L16.07 52.51Q15.35 52.71 14.60 52.84L14.60 52.84L14.60 52.84Q13.86 52.97 13.10 52.91L13.10 52.91L13.10 52.91Q12.86 53.09 12.58 53.19L12.58 53.19L12.58 53.19Q12.30 53.29 12.07 53.47L12.07 53.47L12.07 53.47Q10.87 53.29 9.68 53.20L9.68 53.20L9.68 53.20Q8.50 53.12 7.35 52.79L7.35 52.79L7.35 52.79Q7.35 52.71 7.29 52.68L7.29 52.68L7.29 52.68Q7.24 52.65 7.16 52.63L7.16 52.63L7.16 52.63Q7.09 52.62 7.03 52.57L7.03 52.57L7.03 52.57Q6.97 52.53 7.03 52.41L7.03 52.41L7.03 52.41Q6.77 52.50 6.56 52.50L6.56 52.50L6.56 52.50Q6.27 52.50 5.99 52.35L5.99 52.35L5.99 52.35Q5.71 52.21 5.41 52.03L5.41 52.03L5.41 52.03Q5.10 51.86 4.78 51.69L4.78 51.69L4.78 51.69Q4.45 51.53 4.07 51.53L4.07 51.53L4.07 51.53Q3.84 51.30 3.65 51.06L3.65 51.06L3.65 51.06Q3.46 50.83 3.37 50.48L3.37 50.48L3.37 50.48Q3.25 50.45 3.12 50.48L3.12 50.48L3.12 50.48Q2.99 50.51 2.90 50.51L2.90 50.51L2.90 50.51Q2.72 50.51 2.72 50.39L2.72 50.39L2.72 50.39Q2.11 49.95 1.85 49.45L1.85 49.45L1.85 49.45Q1.58 48.96 1.26 48.31L1.26 48.31L1.26 48.31Q1.17 48.11 1.04 47.97L1.04 47.97L1.04 47.97Q0.91 47.84 0.85 47.67L0.85 47.67L0.85 47.67Q0.73 47.37 0.70 47.05L0.70 47.05L0.70 47.05Q0.67 46.73 0.66 46.42L0.66 46.42L0.66 46.42Q0.64 46.11 0.57 45.81L0.57 45.81L0.57 45.81Q0.50 45.50 0.29 45.23L0.29 45.23L0.29 45.23Q0.35 44.12 0.54 43.01L0.54 43.01L0.54 43.01Q0.73 41.89 1.03 40.78L1.03 40.78L1.03 40.78Q1.14 40.28 1.29 39.81L1.29 39.81L1.29 39.81Q1.44 39.35 1.55 38.85L1.55 38.85L1.55 38.85Q1.58 38.67 1.66 38.60L1.66 38.60L1.66 38.60Q1.73 38.53 1.79 38.50L1.79 38.50L1.90 38.41L1.90 38.41Q1.96 38.35 1.99 38.23L1.99 38.23L2.23 37.24L2.23 37.24Q2.46 36.27 2.84 35.36L2.84 35.36L2.84 35.36Q3.22 34.45 3.87 33.69L3.87 33.69L3.87 33.69Q3.93 32.96 4.20 32.30L4.20 32.30L4.20 32.30Q4.48 31.64 4.83 31.01L4.83 31.01L4.83 31.01Q5.19 30.38 5.54 29.77L5.54 29.77L5.54 29.77Q5.89 29.15 6.09 28.45L6.09 28.45L6.06 28.39L6.06 28.39Q6.06 28.27 6.20 28.26L6.20 28.26L6.20 28.26Q6.33 28.24 6.39 28.24L6.39 28.24L6.39 28.24Q6.42 27.77 6.61 27.44L6.61 27.44L6.61 27.44Q6.80 27.10 7.02 26.81L7.02 26.81L7.02 26.81Q7.24 26.51 7.43 26.18L7.43 26.18L7.43 26.18Q7.62 25.84 7.65 25.37L7.65 25.37L7.65 25.37Q8.20 25.05 8.60 24.57L8.60 24.57L8.60 24.57Q8.99 24.08 9.36 23.57L9.36 23.57L9.36 23.57Q9.73 23.06 10.14 22.57L10.14 22.57L10.14 22.57Q10.55 22.09 11.13 21.80L11.13 21.80L11.13 21.80Q11.28 21.62 11.22 21.30L11.22 21.30L11.22 21.30Q12.13 20.63 13.10 20.10L13.10 20.10L13.10 20.10Q14.06 19.57 14.91 18.87L14.91 18.87L15.97 18.87L15.97 18.87Q16.35 18.57 16.82 18.57L16.82 18.57L16.82 18.57Q17.17 18.57 17.50 18.72L17.50 18.72L17.50 18.72Q17.84 18.87 18.15 19.06L18.15 19.06L18.15 19.06Q18.46 19.25 18.78 19.44L18.78 19.44L18.78 19.44Q19.10 19.63 19.42 19.72L19.42 19.72L19.42 19.72Q19.75 20.16 19.88 20.73L19.88 20.73L19.88 20.73Q20.01 21.30 20.16 21.80L20.16 21.80L20.16 21.80Q19.89 22.59 19.83 23.42L19.83 23.42L19.83 23.42Q19.78 24.26 19.63 25.08L19.63 25.08L19.63 25.08Q19.42 25.31 19.28 25.59L19.28 25.59L19.28 25.59Q19.13 25.87 18.97 26.15L18.97 26.15L18.97 26.15Q18.81 26.43 18.63 26.67L18.63 26.67L18.63 26.67Q18.46 26.92 18.16 27.07L18.16 27.07L18.16 27.07Q17.93 27.92 17.43 28.42L17.43 28.42L17.43 28.42Q16.93 28.92 16.46 29.59L16.46 29.59L16.46 29.59Q16.03 29.88 15.53 29.88L15.53 29.88L15.53 29.88Q15.12 29.88 14.79 29.69L14.79 29.69L14.79 29.69Q14.47 29.50 14.21 29.19L14.21 29.19L14.21 29.19Q13.95 28.89 13.78 28.52L13.78 28.52L13.78 28.52Q13.62 28.15 13.54 27.80L13.54 27.80L13.54 27.80Q13.74 27.19 14.19 26.75L14.19 26.75L14.19 26.75Q14.65 26.31 15.12 25.87L15.12 25.87L15.12 25.87Q15.59 25.43 15.94 24.93L15.94 24.93L15.94 24.93Q16.29 24.43 16.29 23.73L16.29 23.73L16.29 23.73Q16.29 23.67 16.27 23.61L16.27 23.61L16.27 23.61Q16.26 23.55 16.26 23.50L16.26 23.50L16.26 23.50Q16.26 23.38 16.35 23.29L16.35 23.29L16.35 23.29Q16.44 23.20 16.52 23.14L16.52 23.14L16.70 23.00L16.70 23.00Q16.79 22.91 16.79 22.79L16.79 22.79L16.79 22.79Q16.79 22.68 16.67 22.56L16.67 22.56L16.67 22.56Q15.56 22.65 14.99 22.94L14.99 22.94L14.99 22.94Q14.41 23.23 14.09 23.58L14.09 23.58L14.09 23.58Q13.77 23.94 13.52 24.27L13.52 24.27L13.52 24.27Q13.27 24.61 12.80 24.76L12.80 24.76L12.80 24.76Q12.71 24.99 12.55 25.15L12.55 25.15L12.55 25.15Q12.39 25.31 12.22 25.47L12.22 25.47L12.22 25.47Q12.04 25.63 11.91 25.84L11.91 25.84L11.91 25.84Q11.78 26.04 11.75 26.34L11.75 26.34L11.22 26.34L11.22 26.34Q11.10 26.60 10.88 26.85L10.88 26.85L10.88 26.85Q10.66 27.10 10.44 27.33L10.44 27.33L10.44 27.33Q10.22 27.57 10.06 27.85L10.06 27.85L10.06 27.85Q9.90 28.13 9.96 28.45L9.96 28.45L9.96 28.45Q9.64 28.56 9.48 28.83L9.48 28.83L9.48 28.83Q9.32 29.09 9.02 29.27L9.02 29.27L9.02 29.44L9.02 29.44Q9.02 29.68 8.94 29.88L8.94 29.88L8.94 29.88Q8.85 30.09 8.91 30.32L8.91 30.32L8.91 30.32Q8.55 30.64 8.39 31.13L8.39 31.13L8.39 31.13Q8.23 31.61 8.06 32.02L8.06 32.02L8.06 32.02Q7.65 32.23 7.50 32.58L7.50 32.58L7.50 32.58Q7.35 32.93 7.35 33.40L7.35 33.40L7.35 33.40Q6.91 33.84 6.56 34.42L6.56 34.42L6.56 34.42Q6.21 35.01 5.93 35.63L5.93 35.63L5.93 35.63Q5.65 36.24 5.42 36.88L5.42 36.88L5.42 36.88Q5.19 37.53 4.92 38.09L4.92 38.09L4.92 38.94L4.92 38.94Q4.51 39.40 4.35 40.03L4.35 40.03L4.35 40.03Q4.19 40.66 3.87 41.16L3.87 41.16L3.87 41.16Q3.81 41.48 3.82 41.81L3.82 41.81L3.82 41.81Q3.84 42.13 3.84 42.45L3.84 42.45L3.84 42.45Q3.84 42.80 3.78 43.18L3.78 43.18L3.78 43.18Q3.72 43.56 3.57 43.89L3.57 43.89L3.57 43.89Q3.69 44.33 3.75 44.93L3.75 44.93L3.75 44.93Q3.81 45.53 3.96 46.13L3.96 46.13L3.96 46.13Q4.10 46.73 4.37 47.21L4.37 47.21L4.37 47.21Q4.63 47.70 5.13 47.87L5.13 47.87L5.13 47.87Q5.24 48.52 5.70 48.85L5.70 48.85L5.70 48.85Q6.15 49.19 6.74 49.39L6.74 49.39L6.74 49.39Q7.32 49.60 7.94 49.76L7.94 49.76L7.94 49.76Q8.55 49.92 9.02 50.19L9.02 50.19L9.02 50.19Q9.20 50.10 9.43 50.10L9.43 50.10L9.43 50.10Q9.67 50.10 9.86 50.16L9.86 50.16L9.86 50.16Q10.05 50.21 10.28 50.27L10.28 50.27L10.28 50.27Q10.69 50.21 11.29 50.21L11.29 50.21L11.29 50.21Q11.89 50.21 12.51 50.17L12.51 50.17L12.51 50.17Q13.13 50.13 13.65 50.01L13.65 50.01L13.65 50.01Q14.18 49.89 14.50 49.57L14.50 49.57L14.50 49.57Q14.71 49.57 14.78 49.69L14.78 49.69L14.78 49.69Q14.85 49.80 15.06 49.80L15.06 49.80L15.06 49.80Q15.26 49.80 15.67 49.70L15.67 49.70L15.67 49.70Q16.08 49.60 16.52 49.47L16.52 49.47L16.52 49.47Q16.96 49.34 17.36 49.19L17.36 49.19L17.36 49.19Q17.75 49.04 17.93 48.93L17.93 48.93L17.93 48.93Q18.02 48.96 18.11 48.96L18.11 48.96L18.31 48.96L18.31 48.96Q18.72 48.96 19.07 48.81L19.07 48.81L19.07 48.81Q19.42 48.66 19.83 48.72L19.83 48.72L19.83 48.72Q21.18 48.05 22.57 47.56L22.57 47.56L22.57 47.56Q23.96 47.08 25.40 46.70L25.40 46.70L25.40 46.70Q25.58 46.44 25.83 46.32L25.83 46.32L25.83 46.32Q26.07 46.20 26.37 46.13L26.37 46.13L26.37 46.13Q26.66 46.05 26.95 46.01L26.95 46.01L26.95 46.01Q27.25 45.97 27.51 45.88L27.51 45.88L27.51 45.88Q27.69 45.79 27.82 45.66L27.82 45.66L27.82 45.66Q27.95 45.53 28.15 45.44L28.15 45.44L28.15 45.44Q28.36 45.35 28.61 45.32L28.61 45.32L28.61 45.32Q28.86 45.29 29.11 45.25L29.11 45.25L29.11 45.25Q29.36 45.21 29.58 45.12L29.58 45.12L29.58 45.12Q29.79 45.03 29.94 44.82L29.94 44.82L29.94 44.82Q30.35 45 30.78 45.21L30.78 45.21L30.78 45.21Q31.20 45.41 31.49 45.79L31.49 45.79ZM65.67 42.57L65.67 42.57L65.67 42.57Q65.67 42.95 65.46 43.26L65.46 43.26L65.46 43.26Q65.26 43.56 65.35 43.97L65.35 43.97L65.35 43.97Q65.23 44.18 65.04 44.30L65.04 44.30L65.04 44.30Q64.85 44.41 64.91 44.74L64.91 44.74L64.91 44.74Q64.29 45.06 63.78 45.54L63.78 45.54L63.78 45.54Q63.27 46.03 62.68 46.46L62.68 46.46L62.68 46.46Q62.33 46.73 62.08 46.83L62.08 46.83L62.08 46.83Q61.83 46.93 61.48 47.14L61.48 47.14L60.75 47.61L60.75 47.61Q60.25 47.87 59.74 48.13L59.74 48.13L59.74 48.13Q59.22 48.40 58.81 48.81L58.81 48.81L58.81 48.81Q58.20 48.84 57.55 49.15L57.55 49.15L57.55 49.15Q56.91 49.45 56.32 49.69L56.32 49.69L56.32 49.69Q56.09 49.78 55.86 49.82L55.86 49.82L55.86 49.82Q55.62 49.86 55.39 49.98L55.39 49.98L54.92 50.19L54.92 50.19Q54.51 50.39 53.95 50.61L53.95 50.61L53.95 50.61Q53.39 50.83 52.96 50.83L52.96 50.83L52.96 50.83Q52.69 50.95 52.52 51.24L52.52 51.24L52.52 51.24Q51.55 51.56 50.52 51.74L50.52 51.74L50.52 51.74Q49.50 51.91 48.53 52.29L48.53 52.29L48.53 52.29Q48.21 52.44 47.87 52.69L47.87 52.69L47.87 52.69Q47.54 52.94 47.15 52.91L47.15 52.91L47.15 52.91Q47.07 53.06 47.04 53.26L47.04 53.26L47.04 53.26Q47.01 53.47 46.95 53.67L46.95 53.67L46.86 53.67L46.86 53.67Q46.74 53.67 46.76 53.55L46.76 53.55L46.76 53.55Q46.77 53.44 46.66 53.44L46.66 53.44L46.66 53.44Q46.57 53.44 46.54 53.47L46.54 53.47L46.54 53.47Q46.16 53.55 45.82 53.61L45.82 53.61L45.82 53.61Q45.48 53.67 45.07 53.67L45.07 53.67L45.07 53.67Q44.84 53.67 44.33 53.61L44.33 53.61L44.33 53.61Q43.81 53.55 43.58 53.47L43.58 53.47L43.58 53.47Q43.40 53.38 43.29 53.14L43.29 53.14L43.29 53.14Q43.17 52.91 43.07 52.65L43.07 52.65L43.07 52.65Q42.96 52.38 42.89 52.10L42.89 52.10L42.89 52.10Q42.82 51.83 42.76 51.65L42.76 51.65L42.76 51.65Q42.85 51.33 43.05 51.12L43.05 51.12L43.05 51.12Q43.26 50.92 43.38 50.60L43.38 50.60L43.38 50.60Q43.64 50.57 43.90 50.51L43.90 50.51L43.90 50.51Q44.17 50.45 44.43 50.48L44.43 50.48L44.43 50.48Q45.34 50.21 46.26 49.97L46.26 49.97L46.26 49.97Q47.18 49.72 48.09 49.45L48.09 49.45L48.09 49.45Q49 49.19 49.88 48.87L49.88 48.87L49.88 48.87Q50.76 48.54 51.58 48.08L51.58 48.08L52.19 48.08L52.19 48.08Q52.72 47.78 53.37 47.58L53.37 47.58L53.37 47.58Q54.01 47.37 54.42 46.90L54.42 46.90L54.42 46.90Q55.39 46.70 56.44 46.35L56.44 46.35L56.44 46.35Q57.50 46.00 58.20 45.23L58.20 45.23L58.20 45.23Q58.64 45.18 58.96 45.01L58.96 45.01L58.96 45.01Q59.28 44.85 59.58 44.68L59.58 44.68L60.16 44.30L60.16 44.30Q60.46 44.09 60.84 43.97L60.84 43.97L60.84 43.97Q61.07 43.74 61.28 43.48L61.28 43.48L61.28 43.48Q61.48 43.21 61.77 43.04L61.77 43.04L61.77 43.04Q61.69 42.57 61.30 42.33L61.30 42.33L61.30 42.33Q60.92 42.10 60.63 41.78L60.63 41.78L59.99 41.78L59.99 41.78Q59.22 41.31 58.36 41.06L58.36 41.06L58.36 41.06Q57.50 40.81 56.65 40.52L56.65 40.52L56.65 40.52Q56.59 40.49 56.50 40.49L56.50 40.49L56.50 40.49Q56.29 40.49 56.25 40.63L56.25 40.63L56.25 40.63Q56.21 40.78 56.00 40.75L56.00 40.75L56.00 40.75Q55.74 40.58 55.45 40.53L55.45 40.53L55.45 40.53Q55.15 40.49 54.83 40.49L54.83 40.49L54.83 40.49Q54.42 40.49 54.02 40.53L54.02 40.53L54.02 40.53Q53.63 40.58 53.22 40.58L53.22 40.58L53.22 40.58Q53.01 40.58 52.81 40.55L52.81 40.55L52.81 40.55Q52.60 40.52 52.40 40.40L52.40 40.40L52.02 40.40L52.02 40.40Q51.40 40.40 50.80 40.44L50.80 40.44L50.80 40.44Q50.20 40.49 49.62 40.49L49.62 40.49L49.62 40.49Q49.29 40.49 49 40.47L49 40.47L49 40.47Q48.71 40.46 48.41 40.40L48.41 40.40L48.41 40.40Q47.80 40.69 47.10 40.81L47.10 40.81L47.10 40.81Q46.39 40.93 45.65 40.99L45.65 40.99L45.65 40.99Q44.90 41.04 44.17 41.09L44.17 41.09L44.17 41.09Q43.43 41.13 42.76 41.25L42.76 41.25L42.76 41.25Q42.58 41.22 42.42 41.21L42.42 41.21L42.42 41.21Q42.26 41.19 42.12 41.19L42.12 41.19L42.12 41.19Q41.97 41.19 41.81 41.21L41.81 41.21L41.81 41.21Q41.65 41.22 41.50 41.25L41.50 41.25L41.50 41.25Q41.12 40.84 40.58 40.65L40.58 40.65L40.58 40.65Q40.04 40.46 39.51 40.40L39.51 40.40L39.51 40.40Q39.10 39.90 38.91 39.39L38.91 39.39L38.91 39.39Q38.72 38.88 38.66 38.23L38.66 38.23L38.78 38.23L38.78 38.23Q38.98 38.23 38.97 38.03L38.97 38.03L38.97 38.03Q38.95 37.82 39.10 37.68L39.10 37.68L39.10 37.68Q39.24 37.50 39.49 37.43L39.49 37.43L39.49 37.43Q39.74 37.35 39.98 37.27L39.98 37.27L39.98 37.27Q40.21 37.18 40.43 37.05L40.43 37.05L40.43 37.05Q40.65 36.91 40.77 36.62L40.77 36.62L41.15 36.62L41.15 36.62Q41.27 36.62 41.40 36.64L41.40 36.64L41.40 36.64Q41.53 36.65 41.62 36.74L41.62 36.74L41.62 36.74Q41.73 36.62 41.91 36.53L41.91 36.53L41.91 36.53Q42.09 36.45 42.25 36.36L42.25 36.36L42.25 36.36Q42.41 36.27 42.53 36.15L42.53 36.15L42.53 36.15Q42.64 36.04 42.67 35.80L42.67 35.80L42.67 35.80Q42.70 35.89 42.82 35.89L42.82 35.89L42.82 35.89Q42.94 35.89 43.04 35.83L43.04 35.83L43.04 35.83Q43.14 35.77 43.29 35.80L43.29 35.80L43.29 35.80Q43.43 35.39 43.79 35.36L43.79 35.36L43.79 35.36Q44.14 35.33 44.43 35.16L44.43 35.16L44.43 35.16Q44.63 35.04 44.81 34.88L44.81 34.88L44.81 34.88Q44.99 34.72 45.19 34.57L45.19 34.57L46.95 33.22L49.64 31.17L49.64 31.17Q50.99 30.15 52.40 29.27L52.40 29.27L52.40 29.27Q52.46 29.09 52.57 29.00L52.57 29.00L52.57 29.00Q52.69 28.92 52.81 28.81L52.81 28.81L52.81 28.81Q52.93 28.71 53.00 28.59L53.00 28.59L53.00 28.59Q53.07 28.48 53.04 28.24L53.04 28.24L53.04 28.24Q53.45 28.15 53.67 27.92L53.67 27.92L53.67 27.92Q53.89 27.69 54.07 27.41L54.07 27.41L54.07 27.41Q54.24 27.13 54.43 26.85L54.43 26.85L54.43 26.85Q54.63 26.57 54.95 26.43L54.95 26.43L54.95 26.43Q54.92 26.34 54.92 26.16L54.92 26.16L54.92 26.16Q54.92 25.93 54.96 25.69L54.96 25.69L54.96 25.69Q55.01 25.46 55.18 25.28L55.18 25.28L55.18 25.28Q54.92 24.67 54.27 24.39L54.27 24.39L54.27 24.39Q53.63 24.11 53.04 23.91L53.04 23.91L52.96 23.91L52.96 23.91Q52.81 23.91 52.79 24.04L52.79 24.04L52.79 24.04Q52.78 24.17 52.63 24.23L52.63 24.23L52.63 24.23Q52.16 24.11 51.58 24.11L51.58 24.11L51.58 24.11Q50.99 24.11 50.42 24.20L50.42 24.20L50.42 24.20Q49.85 24.29 49.26 24.23L49.26 24.23L49.26 24.23Q49.18 24.35 49.07 24.46L49.07 24.46L49.07 24.46Q48.97 24.58 48.82 24.67L48.82 24.67L48.82 24.67Q48.21 24.70 47.59 24.84L47.59 24.84L46.36 25.14L45.69 25.28L45.69 25.28Q45.54 25.34 45.48 25.49L45.48 25.49L45.48 25.49Q45.43 25.63 45.40 25.81L45.40 25.81L45.40 25.81Q45.22 25.78 45.18 25.66L45.18 25.66L45.18 25.66Q45.13 25.55 44.96 25.49L44.96 25.49L44.96 25.49Q44.28 25.90 43.51 26.16L43.51 26.16L43.51 26.16Q42.73 26.43 42.12 26.98L42.12 26.98L42.12 26.98Q41.91 26.75 41.53 26.75L41.53 26.75L41.53 26.75Q41.21 26.75 40.83 26.95L40.83 26.95L40.83 26.95Q40.45 27.16 40.36 27.48L40.36 27.48L40.36 27.48Q40.06 27.42 39.92 27.42L39.92 27.42L39.92 27.42Q39.60 27.42 39.38 27.60L39.38 27.60L39.38 27.60Q39.16 27.77 38.95 27.99L38.95 27.99L38.95 27.99Q38.75 28.21 38.51 28.42L38.51 28.42L38.51 28.42Q38.28 28.62 37.93 28.65L37.93 28.65L37.93 28.65Q37.93 28.80 37.94 28.96L37.94 28.96L37.94 28.96Q37.96 29.12 37.96 29.30L37.96 29.30L37.96 29.30Q37.96 30.62 37.81 31.92L37.81 31.92L37.81 31.92Q37.66 33.22 37.66 34.54L37.66 34.54L37.66 34.54Q37.66 34.83 37.69 35.11L37.69 35.11L37.69 35.11Q37.72 35.39 37.72 35.71L37.72 35.71L37.72 35.71Q37.72 35.80 37.59 36.09L37.59 36.09L37.59 36.09Q37.46 36.39 37.40 36.53L37.40 36.53L37.40 36.53Q37.52 36.86 37.50 37.18L37.50 37.18L37.50 37.18Q37.49 37.50 37.63 37.79L37.63 37.79L37.63 37.79Q37.37 38.03 37.37 38.44L37.37 38.44L37.37 38.44Q37.37 38.61 37.38 38.79L37.38 38.79L37.38 38.79Q37.40 38.96 37.40 39.14L37.40 39.14L37.40 39.49L37.40 39.49Q37.31 40.08 37.28 40.68L37.28 40.68L37.28 40.68Q37.25 41.28 37.25 41.87L37.25 41.87L37.25 41.87Q37.25 42.13 37.27 42.76L37.27 42.76L37.27 42.76Q37.28 43.39 37.34 44.17L37.34 44.17L37.34 44.17Q37.40 44.94 37.52 45.76L37.52 45.76L37.52 45.76Q37.63 46.58 37.82 47.27L37.82 47.27L37.82 47.27Q38.01 47.96 38.31 48.40L38.31 48.40L38.31 48.40Q38.60 48.84 39.01 48.84L39.01 48.84L39.01 48.84Q39.10 48.84 39.23 48.81L39.23 48.81L39.23 48.81Q39.36 48.78 39.36 48.66L39.36 48.66L39.36 48.66Q39.36 48.54 39.32 48.46L39.32 48.46L39.32 48.46Q39.27 48.37 39.27 48.25L39.27 48.25L39.30 48.19L39.30 48.19Q39.54 48.31 39.82 48.34L39.82 48.34L39.82 48.34Q40.09 48.37 40.39 48.40L40.39 48.40L40.39 48.40Q40.68 48.43 40.94 48.50L40.94 48.50L40.94 48.50Q41.21 48.57 41.41 48.81L41.41 48.81L41.41 48.81Q41.29 49.04 41.29 49.31L41.29 49.31L41.29 49.31Q41.29 49.66 41.47 49.97L41.47 49.97L41.47 49.97Q41.65 50.27 41.71 50.60L41.71 50.60L41.71 50.60Q41.15 50.77 40.69 50.99L40.69 50.99L40.69 50.99Q40.24 51.21 39.80 51.40L39.80 51.40L39.80 51.40Q39.36 51.59 38.86 51.75L38.86 51.75L38.86 51.75Q38.37 51.91 37.72 51.97L37.72 51.97L37.72 51.97Q37.31 51.71 37.02 51.50L37.02 51.50L37.02 51.50Q36.72 51.30 36.23 51.24L36.23 51.24L36.23 51.24Q35.46 50.21 34.97 48.94L34.97 48.94L34.97 48.94Q34.47 47.67 34.19 46.29L34.19 46.29L34.19 46.29Q33.91 44.91 33.81 43.52L33.81 43.52L33.81 43.52Q33.71 42.13 33.71 40.90L33.71 40.90L33.71 40.90Q33.71 39.55 33.81 38.22L33.81 38.22L33.81 38.22Q33.91 36.88 34.09 35.54L34.09 35.54L34.09 35.54Q34.15 35.13 34.21 34.70L34.21 34.70L34.21 34.70Q34.26 34.28 34.32 33.87L34.32 33.87L34.32 33.87Q34.38 33.72 34.42 33.53L34.42 33.53L34.42 33.53Q34.47 33.34 34.47 33.19L34.47 33.19L34.47 33.19Q34.47 32.70 34.44 32.20L34.44 32.20L34.44 32.20Q34.41 31.70 34.41 31.23L34.41 31.23L34.41 31.23Q34.41 30.50 34.50 29.74L34.50 29.74L34.50 29.74Q34.53 29.59 34.60 29.36L34.60 29.36L34.60 29.36Q34.67 29.12 34.67 28.95L34.67 28.95L34.67 28.95Q34.67 28.71 34.56 28.62L34.56 28.62L34.56 28.62Q34.44 28.54 34.35 28.33L34.35 28.33L34.35 28.33Q34.44 28.04 34.50 27.76L34.50 27.76L34.50 27.76Q34.56 27.48 34.56 27.19L34.56 27.19L34.56 27.19Q34.56 26.63 34.35 26.22L34.35 26.22L34.35 26.22Q34.50 25.46 34.79 24.73L34.79 24.73L34.79 24.73Q35.08 23.99 35.82 23.61L35.82 23.61L35.82 23.61Q36.40 23.64 37.00 23.73L37.00 23.73L37.00 23.73Q37.60 23.82 38.04 24.23L38.04 24.23L38.04 24.23Q38.25 24.11 38.51 24.08L38.51 24.08L39.07 24.02L39.07 24.02Q39.36 23.99 39.60 23.92L39.60 23.92L39.60 23.92Q39.83 23.85 40.01 23.61L40.01 23.61L40.01 23.61Q40.59 23.50 41.27 23.28L41.27 23.28L41.27 23.28Q41.94 23.06 42.44 22.76L42.44 22.76L43.08 22.76L43.08 22.76Q43.29 22.62 43.55 22.56L43.55 22.56L44.11 22.41L44.11 22.41Q44.40 22.32 44.65 22.24L44.65 22.24L44.65 22.24Q44.90 22.15 45.04 21.94L45.04 21.94L45.16 21.94L45.16 21.94Q45.84 21.94 46.48 21.65L46.48 21.65L46.48 21.65Q47.13 21.36 47.74 21.12L47.74 21.12L47.74 21.12Q47.89 21.06 48.19 20.92L48.19 20.92L48.19 20.92Q48.50 20.77 48.62 20.77L48.62 20.77L48.62 20.77Q49.03 20.71 49.44 20.70L49.44 20.70L49.44 20.70Q49.85 20.68 50.26 20.60L50.26 20.60L50.26 20.60Q51.20 20.45 52.12 20.26L52.12 20.26L52.12 20.26Q53.04 20.07 53.98 20.07L53.98 20.07L53.98 20.07Q54.30 20.07 54.58 20.08L54.58 20.08L54.58 20.08Q54.86 20.10 55.18 20.13L55.18 20.13L55.18 20.13Q55.21 20.24 55.33 20.32L55.33 20.32L55.33 20.32Q55.45 20.39 55.55 20.45L55.55 20.45L55.55 20.45Q55.65 20.51 55.74 20.61L55.74 20.61L55.74 20.61Q55.83 20.71 55.80 20.89L55.80 20.89L55.80 20.89Q55.86 20.95 55.91 20.95L55.91 20.95L55.91 20.95Q56.00 20.95 56.08 20.86L56.08 20.86L56.08 20.86Q56.15 20.77 56.29 20.77L56.29 20.77L56.44 20.77L56.44 20.77Q56.82 21.18 57.19 21.55L57.19 21.55L57.19 21.55Q57.55 21.91 58.11 22.15L58.11 22.15L58.11 22.15Q58.35 23.03 58.67 23.88L58.67 23.88L58.67 23.88Q58.99 24.73 58.99 25.69L58.99 25.69L58.99 25.69Q58.99 26.28 58.81 26.84L58.81 26.84L58.81 26.84Q58.40 27.04 58.23 27.48L58.23 27.48L58.23 27.48Q58.05 27.92 57.91 28.33L57.91 28.33L57.91 28.33Q57.09 28.74 56.53 29.41L56.53 29.41L56.53 29.41Q55.97 30.09 55.39 30.76L55.39 30.76L54.92 30.76L54.92 30.76Q54.80 30.76 54.74 30.85L54.74 30.85L54.48 31.14L54.48 31.14Q54.21 31.38 53.91 31.61L53.91 31.61L53.91 31.61Q53.60 31.85 53.45 32.23L53.45 32.23L53.45 32.23Q52.54 32.72 51.71 33.34L51.71 33.34L51.71 33.34Q50.88 33.96 50.11 34.63L50.11 34.63L50.11 34.63Q49.79 34.89 49.47 35.23L49.47 35.23L49.47 35.23Q49.15 35.57 48.82 35.80L48.82 35.80L48.82 35.80Q48.65 35.95 48.43 36.05L48.43 36.05L48.43 36.05Q48.21 36.15 48.03 36.30L48.03 36.30L48.03 36.30Q47.65 36.59 47.33 36.90L47.33 36.90L47.33 36.90Q47.01 37.21 46.66 37.47L46.66 37.47L46.66 37.47Q47.97 37.41 49.32 37.40L49.32 37.40L49.32 37.40Q50.67 37.38 51.99 37.35L51.99 37.35L51.99 37.35Q52.66 37.35 53.31 37.31L53.31 37.31L53.31 37.31Q53.95 37.27 54.63 37.27L54.63 37.27L54.63 37.27Q54.74 37.27 54.83 37.31L54.83 37.31L54.83 37.31Q54.92 37.35 55.04 37.38L55.04 37.38L55.04 37.38Q55.53 37.47 55.91 37.59L55.91 37.59L55.91 37.59Q57.32 37.85 58.73 38.06L58.73 38.06L58.73 38.06Q60.13 38.26 61.48 38.73L61.48 38.73L61.48 38.73Q61.86 38.88 62.05 39.05L62.05 39.05L62.05 39.05Q62.24 39.23 62.74 39.14L62.74 39.14L62.74 39.14Q63.15 39.55 63.63 39.79L63.63 39.79L63.63 39.79Q64.12 40.02 64.62 40.20L64.62 40.20L64.62 40.20Q65.00 40.78 65.33 41.31L65.33 41.31L65.33 41.31Q65.67 41.84 65.67 42.57Z" transform="rotate(0 32.97999864816666 36.119998931884766)"></path></svg>